<svg xmlns="http://www.w3.org/2000/svg" fill="none" viewBox="0 0 22 19">
  <path d="M15.582 1A5.334 5.334 0 0011 3.737 5.334 5.334 0 006.419 1C3.306 1.135.887 3.748 1.004 6.848c0 3.772 3.987 7.892 7.33 10.685a4.157 4.157 0 005.332 0c3.343-2.793 7.33-6.913 7.33-10.685.117-3.1-2.302-5.713-5.414-5.848v0zm-2.987 15.264a2.484 2.484 0 01-3.19 0C5.125 12.687 2.67 9.256 2.67 6.848A3.988 3.988 0 016.42 2.66a3.988 3.988 0 013.748 4.19c0 .457.373.829.833.829.46 0 .833-.372.833-.83a3.988 3.988 0 013.748-4.189 3.988 3.988 0 013.749 4.19c0 2.407-2.455 5.838-6.735 9.411v.003z" fill="#AEADA9" stroke="#fff" stroke-width=".3"/>
</svg>
