<svg xmlns="http://www.w3.org/2000/svg" fill="none" viewBox="0 0 180 100">
  <path d="M50 0l11.226 34.55h36.327l-29.39 21.352L79.39 90.45 50 69.098 20.61 90.451 31.837 55.9 2.447 34.55h36.327L50 0z" fill="#FFBA00"/>
  <path d="M70 0l11.226 34.55h36.327l-29.39 21.352L99.39 90.45 70 69.098 40.61 90.451 51.837 55.9l-29.39-21.35h36.327L70 0z" fill="#FFBA00"/>
  <path d="M90 0l11.226 34.55h36.327l-29.389 21.352 11.225 34.549L90 69.098 60.61 90.451 71.837 55.9l-29.39-21.35h36.327L90 0z" fill="#FFBA00"/>
  <path d="M110 0l11.226 34.55h36.327l-29.389 21.352 11.225 34.549L110 69.098 80.61 90.451 91.837 55.9l-29.39-21.35h36.327L110 0z" fill="#FFBA00"/>
  <path d="M130 0l11.226 34.55h36.327l-29.389 21.352 11.225 34.549L130 69.098l-29.389 21.353 11.225-34.55L82.447 34.55h36.327L130 0z" fill="url(#azLIRzhWsRa)"/>
  <defs>
    <linearGradient id="azLIRzhWsRa" x1="177.541" y1="38.503" x2="82.747" y2="38.503" gradientUnits="userSpaceOnUse">
      <stop stop-color="#FFBA00"/>
      <stop offset=".498" stop-color="#FFBA00"/>
      <stop offset=".505" stop-color="#EDEDED"/>
      <stop offset="1" stop-color="#EDEDED"/>
    </linearGradient>
  </defs>
</svg>
